<svg width="32" height="32" viewBox="0 0 32 32" fill="none" xmlns="http://www.w3.org/2000/svg">
<!--<rect x="7" y="10" width="16" height="13" fill="white"/>-->
<path d="M22.5315 6.13235H21.5733V4.28979H19.6571V6.13235H10.0758V4.28979H8.15954V6.13235H7.20141C6.14747 6.13235 5.28516 6.9615 5.28516 7.9749V22.7153C5.28516 23.7287 6.14747 24.5579 7.20141 24.5579H22.5315C23.5854 24.5579 24.4477 23.7287 24.4477 22.7153V7.9749C24.4477 6.9615 23.5854 6.13235 22.5315 6.13235ZM22.5315 22.7153H7.20141V10.7387H22.5315V22.7153Z" fill="#4D5EFF"/>
<rect x="17" y="18" width="9" height="8" fill="white"/>
<path d="M21.6923 15.1145C17.7257 15.1145 14.5063 18.21 14.5063 22.0241C14.5063 25.8382 17.7257 28.9337 21.6923 28.9337C25.659 28.9337 28.8783 25.8382 28.8783 22.0241C28.8783 18.21 25.659 15.1145 21.6923 15.1145ZM25.2853 22.715H22.4109V25.4789H20.9737V22.715H18.0993V21.3331H20.9737V18.5693H22.4109V21.3331H25.2853V22.715Z" fill="#4D5EFF"/>
</svg>
