<svg width="32" height="38" viewBox="0 0 32 38" fill="none" xmlns="http://www.w3.org/2000/svg">
<path d="M22.7559 9.28203H21.6181V7.09399H19.3425V9.28203H7.96477V7.09399H5.68921V9.28203H4.55143C3.29988 9.28203 2.27588 10.2666 2.27588 11.4701V28.9743C2.27588 30.1778 3.29988 31.1624 4.55143 31.1624H22.7559C24.0074 31.1624 25.0314 30.1778 25.0314 28.9743V11.4701C25.0314 10.2666 24.0074 9.28203 22.7559 9.28203ZM22.7559 28.9743H4.55143V14.7521H22.7559V28.9743Z" fill="#4D5EFF"/>
<rect x="17.4937" y="24.0513" width="8.53333" height="8.20513" fill="white"/>
<path d="M21.7599 19.9487C17.0495 19.9487 13.2266 23.6246 13.2266 28.1539C13.2266 32.6831 17.0495 36.359 21.7599 36.359C26.4703 36.359 30.2932 32.6831 30.2932 28.1539C30.2932 23.6246 26.4703 19.9487 21.7599 19.9487ZM26.0266 28.9744H22.6132V32.2564H20.9066V28.9744H17.4932V27.3333H20.9066V24.0513H22.6132V27.3333H26.0266V28.9744Z" fill="#4D5EFF"/>
</svg>
