<svg width="32" height="32" viewBox="0 0 32 32" fill="none" xmlns="http://www.w3.org/2000/svg">
<path d="M20.3183 11.3635H22.4774C23.05 11.3635 23.5992 11.591 24.0041 11.9959C24.409 12.4008 24.6365 12.95 24.6365 13.5226V23.8863C24.6365 24.4589 24.409 25.0081 24.0041 25.413C23.5992 25.8179 23.05 26.0453 22.4774 26.0453H9.52286C8.95023 26.0453 8.40106 25.8179 7.99615 25.413C7.59124 25.0081 7.36377 24.4589 7.36377 23.8863V13.5226C7.36377 12.95 7.59124 12.4008 7.99615 11.9959C8.40106 11.591 8.95023 11.3635 9.52286 11.3635H11.682" stroke="#4D5EFF" stroke-width="2" stroke-linecap="round" stroke-linejoin="round"/>
<path d="M20.318 7.909L15.9998 3.59082L11.6816 7.909" stroke="#4D5EFF" stroke-width="2" stroke-linecap="round" stroke-linejoin="round"/>
<path d="M16 18.3266V3.59082" stroke="#4D5EFF" stroke-width="2" stroke-linecap="round" stroke-linejoin="round"/>
</svg>
