<svg width="64" height="64" viewBox="0 0 64 64" fill="none" xmlns="http://www.w3.org/2000/svg">
<path d="M50.6667 18.6667V26.64C50.6667 26.64 45.36 26.6667 45.3333 26.64V18.6667H37.3333C37.3333 18.6667 37.36 13.36 37.3333 13.3334H45.3333V5.33337H50.6667V13.3334H58.6667V18.6667H50.6667ZM42.6667 29.3334V21.3334H34.6667V13.3334H13.3333C10.4 13.3334 8 15.7334 8 18.6667V50.6667C8 53.6 10.4 56 13.3333 56H45.3333C48.2667 56 50.6667 53.6 50.6667 50.6667V29.3334H42.6667ZM13.3333 50.6667L21.3333 40L26.6667 48L34.6667 37.3334L45.3333 50.6667H13.3333Z" fill="#B3B3B3"/>
</svg>
