<?xml version="1.0" standalone="no"?>
<!DOCTYPE svg PUBLIC "-//W3C//DTD SVG 20010904//EN"
 "http://www.w3.org/TR/2001/REC-SVG-20010904/DTD/svg10.dtd">
<svg version="1.0" xmlns="http://www.w3.org/2000/svg"
 width="512.000000pt" height="512.000000pt" viewBox="0 0 512.000000 512.000000"
 preserveAspectRatio="xMidYMid meet">
<metadata>
Created by potrace 1.11, written by Peter Selinger 2001-2013
</metadata>
<g transform="translate(0.000000,512.000000) scale(0.100000,-0.100000)"
fill="#000000" stroke="none">
<path d="M2400 4740 c-563 -42 -1081 -295 -1469 -717 -295 -322 -478 -711
-547 -1158 -23 -150 -23 -460 0 -610 112 -729 555 -1335 1210 -1655 317 -155
610 -223 966 -223 356 0 649 68 966 223 655 320 1098 926 1210 1655 23 150 23
460 0 610 -82 534 -322 974 -731 1338 -250 222 -590 399 -926 480 -208 51
-469 73 -679 57z m459 -36 c392 -51 787 -225 1090 -479 420 -353 682 -817 767
-1361 23 -149 23 -459 0 -608 -72 -461 -266 -858 -578 -1182 -297 -308 -632
-506 -1029 -608 -194 -50 -343 -68 -549 -68 -611 0 -1148 230 -1578 676 -312
324 -506 721 -578 1182 -23 149 -23 459 0 608 85 544 347 1008 767 1361 462
388 1069 560 1688 479z"/>
<path d="M2861 4522 c-75 -75 -36 -205 66 -219 49 -6 96 17 87 42 -5 11 -16
13 -50 8 -57 -7 -84 14 -84 66 0 50 24 81 61 81 24 0 32 -6 41 -31 14 -40 40
-35 49 11 11 50 5 54 -93 66 -43 5 -50 3 -77 -24z"/>
<path d="M2452 4514 c-12 -8 -22 -10 -22 -5 0 16 -46 13 -59 -3 -9 -11 -8 -17
4 -29 17 -17 21 -102 5 -112 -20 -12 3 -35 35 -35 43 0 67 26 41 45 -12 10
-16 24 -14 51 3 43 32 69 48 44 13 -20 13 -90 0 -90 -5 0 -10 -9 -10 -20 0
-17 7 -20 40 -20 29 0 43 5 47 17 4 9 1 19 -5 21 -7 2 -12 23 -12 48 0 88 -43
127 -98 88z"/>
<path d="M1960 4506 c-41 -15 -50 -52 -13 -50 23 1 26 -9 48 -127 6 -33 4 -37
-19 -43 -17 -4 -26 -13 -26 -26 0 -25 17 -25 95 -2 49 15 61 22 63 41 3 22 1
23 -26 18 -33 -7 -33 -8 -58 138 -13 72 -11 70 -64 51z"/>
<path d="M2273 4503 c-27 -5 -36 -28 -18 -43 10 -8 11 -19 4 -42 -12 -43 -15
-44 -34 -8 -11 22 -13 35 -6 44 19 22 -3 38 -43 30 -45 -8 -57 -30 -29 -53 32
-26 82 -117 76 -139 -3 -11 -16 -23 -29 -26 -26 -7 -32 -33 -10 -42 8 -3 34
-2 58 3 34 7 44 13 46 31 2 14 -2 22 -11 22 -12 0 -10 15 10 83 14 45 32 90
40 99 9 10 13 24 10 33 -6 15 -20 17 -64 8z"/>
<path d="M3095 4438 c-33 -17 -45 -40 -45 -81 0 -73 84 -128 155 -101 20 8 45
56 45 87 0 33 -36 76 -76 93 -40 17 -52 17 -79 2z m76 -48 c27 -15 26 -75 -1
-90 -42 -23 -85 33 -60 79 12 23 31 26 61 11z"/>
<path d="M3343 4434 c-4 -10 1 -22 10 -29 22 -16 21 -23 -3 -107 -19 -61 -23
-67 -40 -58 -28 15 -40 12 -40 -11 0 -15 16 -27 66 -50 37 -17 73 -28 80 -25
22 8 16 32 -11 44 -14 6 -25 15 -25 19 0 5 11 44 25 88 33 105 32 112 -11 130
-45 19 -43 19 -51 -1z"/>
<path d="M1682 4394 c-25 -17 -30 -44 -8 -44 21 0 68 -147 56 -171 -13 -23 2
-33 36 -25 21 6 24 12 22 41 -1 19 1 37 5 41 12 12 37 -5 37 -27 0 -18 4 -20
27 -14 16 4 34 11 41 17 14 12 12 43 -3 43 -6 0 -24 9 -42 19 -28 17 -30 22
-21 40 6 12 18 26 26 32 17 12 8 34 -13 34 -8 0 -26 -5 -40 -12 -20 -9 -26
-18 -22 -35 2 -13 -1 -30 -8 -39 -9 -14 -14 -6 -29 50 -19 69 -27 76 -64 50z"/>
<path d="M3565 4329 c-4 -6 2 -20 13 -32 l20 -22 -27 -70 c-19 -47 -32 -69
-42 -66 -8 2 -22 6 -31 8 -13 4 -18 0 -18 -15 0 -15 19 -32 68 -61 59 -35 69
-38 82 -25 13 13 11 17 -14 37 l-28 23 36 89 c20 49 36 92 36 96 0 8 -67 49
-80 49 -5 0 -12 -5 -15 -11z"/>
<path d="M1542 4240 c-67 -41 -77 -130 -21 -173 35 -26 80 -16 124 29 37 36
45 63 33 109 -15 57 -74 72 -136 35z m82 -52 c7 -11 7 -26 0 -45 -8 -23 -15
-28 -44 -28 -31 0 -35 3 -38 27 -5 41 15 70 45 66 14 -2 31 -11 37 -20z"/>
<path d="M1343 4110 c-61 -37 -83 -125 -43 -168 12 -12 26 -23 33 -23 85 -8
167 88 137 161 -22 53 -71 65 -127 30z m65 -42 c29 -29 3 -98 -37 -98 -42 0
-55 56 -21 90 23 23 41 25 58 8z"/>
<path d="M2464 4116 c-44 -20 -99 -89 -115 -144 -11 -37 -14 -162 -14 -602 l0
-555 24 -53 c42 -92 120 -140 208 -127 35 5 55 16 92 53 83 82 82 72 79 713
l-3 554 -28 58 c-37 73 -86 109 -160 114 -30 2 -65 -2 -83 -11z"/>
<path d="M3737 4123 c-21 -5 -47 -53 -47 -86 0 -51 72 -126 125 -130 43 -3 42
34 0 45 -39 10 -75 43 -75 68 0 17 9 13 62 -25 68 -51 83 -49 81 10 -1 44 -24
80 -66 105 -32 20 -46 22 -80 13z m82 -67 c35 -37 21 -50 -22 -19 -20 14 -37
30 -37 35 0 17 37 7 59 -16z"/>
<path d="M1180 3978 c-11 -12 -25 -36 -29 -53 -5 -16 -10 -24 -10 -17 -2 20
-26 14 -51 -12 -26 -28 -21 -61 7 -52 21 6 70 -59 53 -69 -13 -8 -13 -45 1
-45 15 0 106 79 114 98 11 28 -12 36 -41 13 l-28 -22 -13 25 c-18 34 -7 72 28
97 34 24 39 59 9 59 -10 0 -29 -10 -40 -22z"/>
<path d="M3933 3969 c-63 -24 -54 -144 14 -180 27 -14 30 -27 7 -36 -9 -3 -26
5 -43 21 -29 27 -46 32 -56 16 -9 -15 23 -57 62 -81 47 -29 71 -17 117 60 25
41 42 58 51 54 26 -9 29 26 5 52 -13 14 -25 23 -28 20 -2 -2 -14 10 -26 27
-25 38 -72 59 -103 47z m69 -66 c33 -29 17 -83 -24 -83 -32 0 -51 63 -26 88
16 16 28 15 50 -5z"/>
<path d="M919 3781 c-26 -27 -55 -61 -64 -75 -18 -27 -12 -51 10 -42 19 7 88
-80 89 -113 1 -14 7 -26 14 -26 17 0 121 124 129 154 10 39 -9 76 -40 79 -20
3 -27 9 -27 26 0 12 -5 27 -12 34 -23 23 -52 12 -99 -37z m61 -34 c0 -16 -28
-57 -39 -57 -18 0 -21 34 -5 51 20 22 44 25 44 6z m64 -53 c4 -10 -4 -30 -20
-51 -26 -34 -26 -34 -41 -13 -14 20 -13 24 13 51 32 33 39 35 48 13z"/>
<path d="M4090 3748 c-24 -40 -25 -52 -1 -103 21 -46 86 -108 109 -103 29 6
24 28 -13 49 -36 22 -65 64 -65 95 0 10 22 -7 58 -46 61 -67 76 -70 87 -20 9
41 -28 116 -69 141 -48 29 -83 25 -106 -13z m112 -49 c36 -49 15 -57 -27 -11
-36 40 -37 44 -16 40 13 -1 33 -15 43 -29z"/>
<path d="M3385 3659 c-78 -12 -116 -24 -197 -66 -142 -74 -194 -151 -186 -274
10 -135 105 -247 191 -225 12 3 50 28 84 56 161 131 270 132 333 5 36 -74 40
-263 10 -476 -64 -446 -216 -848 -401 -1062 -100 -114 -232 -177 -372 -177
-105 1 -156 22 -181 75 -28 58 -18 141 29 250 50 120 54 155 22 204 -37 55
-104 86 -187 86 -115 -1 -191 -62 -215 -173 -7 -31 -15 -50 -18 -42 -3 8 -24
80 -47 160 -90 314 -221 592 -327 692 -69 66 -157 75 -251 27 -109 -56 -121
-16 -36 112 124 183 159 298 152 487 -7 177 -54 279 -150 321 -71 32 -150 28
-215 -9 -47 -27 -57 -39 -92 -113 -87 -180 -175 -487 -211 -737 -87 -601 30
-1072 345 -1385 181 -180 395 -295 685 -368 324 -82 535 -86 810 -17 235 59
400 148 573 310 363 339 613 964 582 1458 -20 336 -146 642 -316 767 -82 61
-159 95 -248 111 -85 15 -83 15 -166 3z m-1881 -521 c47 -67 -25 -282 -124
-372 -51 -46 -88 -46 -109 -1 -31 65 28 241 113 333 60 65 95 76 120 40z m318
-773 c48 -68 71 -179 72 -345 1 -159 -11 -231 -52 -323 -43 -99 -98 -106 -145
-18 -93 173 -83 565 18 697 36 47 69 44 107 -11z"/>
<path d="M670 2322 c-45 -22 -75 -79 -66 -126 8 -42 46 -100 69 -104 27 -5 31
24 8 57 -26 36 -27 82 -3 104 10 9 36 19 59 23 36 5 45 3 67 -19 33 -33 33
-52 0 -82 -26 -24 -27 -55 -2 -55 56 0 108 36 79 54 -5 3 -7 15 -4 25 8 31
-16 88 -48 116 -37 31 -106 34 -159 7z"/>
<path d="M4379 2301 c-22 -23 -29 -39 -29 -69 l0 -39 -42 7 c-24 5 -46 6 -49
4 -13 -8 -16 -55 -4 -71 11 -15 15 -15 29 -4 13 11 30 11 97 0 91 -15 120 -32
96 -57 -13 -13 -23 -12 -82 8 -73 24 -85 21 -88 -26 -2 -27 0 -29 31 -26 18 1
48 -5 68 -13 28 -11 35 -19 32 -37 -4 -30 -35 -34 -99 -13 -57 19 -69 14 -72
-31 -2 -27 1 -29 33 -29 19 -1 56 -4 82 -9 25 -4 55 -5 66 -2 22 7 48 68 37
86 -3 6 1 18 10 27 10 10 15 27 13 43 -2 14 2 32 10 39 7 7 12 25 11 40 -2 14
2 36 9 48 38 69 -10 153 -88 153 -33 0 -48 -6 -71 -29z m105 -47 c26 -25 18
-69 -14 -75 -28 -6 -69 11 -75 32 -14 45 54 78 89 43z"/>
<path d="M725 2077 c-46 -21 -69 -77 -54 -130 14 -51 45 -85 85 -93 115 -21
169 125 77 208 -27 25 -72 31 -108 15z m100 -91 c11 -33 -2 -57 -38 -70 -37
-13 -69 16 -65 58 6 59 83 68 103 12z"/>
<path d="M863 1870 c-6 -21 -85 -56 -103 -45 -6 4 -17 2 -25 -5 -16 -13 -3
-61 22 -82 13 -10 19 -8 37 14 25 30 57 48 86 48 36 0 17 -23 -45 -55 -32 -17
-60 -35 -62 -41 -2 -6 5 -22 16 -35 l20 -24 29 31 c37 41 120 61 97 24 -3 -6
-33 -24 -66 -40 -32 -17 -59 -32 -59 -35 0 -2 5 -16 12 -30 14 -32 31 -32 52
0 9 14 22 25 30 25 20 0 96 58 96 74 0 7 -9 25 -20 39 -11 14 -20 34 -20 45 0
10 -9 27 -20 37 -11 10 -20 26 -20 35 0 37 -48 55 -57 20z"/>
<path d="M4129 1829 c-19 -38 -19 -43 -4 -58 15 -15 17 -14 33 7 l17 22 83
-37 c63 -29 81 -41 76 -53 -13 -29 -9 -54 9 -58 13 -3 26 14 52 72 39 83 42
101 20 110 -9 3 -21 -5 -32 -22 -9 -15 -18 -29 -19 -30 -1 -2 -48 17 -104 42
-56 25 -103 46 -106 46 -2 0 -13 -19 -25 -41z"/>
<path d="M4100 1718 c-5 -13 -19 -35 -31 -49 -11 -14 -23 -43 -26 -65 -13 -99
128 -185 213 -130 31 21 66 96 62 134 -2 19 -10 28 -24 30 -18 3 -22 -4 -28
-40 -9 -54 -30 -78 -72 -78 -44 0 -94 42 -94 79 0 39 20 59 60 63 45 4 46 25
1 55 -42 29 -49 29 -61 1z"/>
<path d="M987 1653 c-4 -3 -7 -13 -7 -22 0 -9 -34 -38 -75 -65 -63 -41 -77
-46 -91 -36 -12 11 -18 11 -30 -2 -13 -13 -12 -20 17 -66 19 -31 39 -52 50
-52 24 0 32 16 20 38 -7 13 -7 22 1 30 18 18 24 15 38 -18 17 -40 46 -60 88
-60 101 0 147 111 72 174 -16 13 -27 26 -24 29 3 3 -2 17 -11 31 -17 25 -35
33 -48 19z m61 -136 c5 -38 -14 -57 -54 -57 -27 0 -35 5 -40 24 -3 13 -1 34 6
46 9 17 19 21 48 18 32 -3 37 -7 40 -31z"/>
<path d="M1133 1453 c-7 -3 -13 -14 -13 -25 0 -11 -18 -37 -40 -57 -53 -48
-59 -79 -24 -114 15 -15 33 -27 41 -27 8 0 11 -5 8 -11 -10 -15 34 -59 51 -52
8 3 14 13 14 23 0 10 25 41 56 68 l55 50 -24 27 c-26 31 -57 29 -57 -3 0 -17
-28 -49 -57 -66 -16 -9 -53 11 -53 29 0 7 23 33 50 56 28 23 50 47 50 54 0 17
-43 53 -57 48z"/>
<path d="M1355 1265 c-14 -16 -26 -22 -30 -15 -9 14 -42 13 -48 -2 -2 -7 2
-20 9 -28 11 -13 8 -22 -21 -59 -19 -24 -35 -53 -35 -64 0 -25 60 -82 95 -91
30 -8 57 8 49 28 -3 7 -20 18 -38 24 -19 7 -37 20 -40 28 -6 15 28 74 43 74 4
0 22 -11 41 -25 18 -13 37 -22 41 -19 17 10 8 43 -17 63 l-26 20 21 34 c16 26
18 36 9 45 -17 17 -26 15 -53 -13z"/>
<path d="M3669 1121 c-33 -32 -39 -45 -39 -79 0 -87 88 -129 167 -79 41 26 75
80 66 104 -9 23 -31 14 -53 -22 -27 -43 -54 -59 -87 -50 -23 5 -21 9 41 57 36
28 66 54 66 58 0 19 -55 50 -88 50 -27 0 -43 -9 -73 -39z m91 -18 c0 -8 -65
-63 -74 -63 -12 0 -5 34 11 52 16 17 63 26 63 11z"/>
<path d="M1449 1051 c-41 -42 -41 -97 2 -146 47 -53 146 -74 137 -29 -2 10
-22 22 -50 31 -47 13 -72 40 -66 69 2 10 19 4 63 -26 65 -43 89 -49 99 -24 27
71 -36 154 -118 154 -28 0 -45 -7 -67 -29z m124 -39 c9 -8 17 -24 17 -34 0
-18 -1 -18 -27 -3 -59 35 -69 45 -54 54 16 10 39 4 64 -17z"/>
<path d="M3564 1047 c-3 -8 -17 -18 -32 -22 -77 -19 -116 -91 -84 -155 21 -43
56 -62 105 -56 70 8 141 86 108 119 -9 9 -19 3 -44 -25 -44 -50 -70 -56 -102
-23 -19 18 -24 31 -20 48 11 36 35 49 82 42 51 -7 61 5 36 47 -21 36 -41 46
-49 25z"/>
<path d="M1694 955 c-4 -8 -1 -22 5 -29 19 -23 -22 -96 -52 -93 -15 1 -23 -4
-25 -18 -2 -17 11 -27 66 -54 38 -19 75 -31 81 -27 20 13 12 35 -19 51 -35 18
-35 17 -15 55 13 24 22 30 49 30 18 0 39 -7 46 -15 19 -22 54 -15 58 12 5 32
-38 57 -84 48 -31 -5 -36 -4 -31 9 7 18 -27 46 -56 46 -9 0 -20 -7 -23 -15z"/>
<path d="M3324 920 c-12 -5 -29 -18 -37 -30 -9 -13 -16 -17 -19 -9 -6 17 -68
-17 -68 -37 0 -8 10 -18 23 -23 29 -11 60 -84 44 -100 -8 -8 -7 -15 5 -27 13
-14 19 -14 50 -1 20 8 39 20 43 26 8 14 -13 43 -25 36 -5 -3 -16 15 -26 41
-16 41 -16 47 -1 61 8 9 23 13 32 10 22 -9 47 -72 39 -101 -8 -34 11 -41 57
-21 42 20 54 53 20 62 -10 2 -28 26 -41 53 -13 27 -33 53 -47 59 -13 6 -25 11
-26 10 -1 0 -12 -4 -23 -9z"/>
<path d="M2851 871 c-21 -13 -6 -61 20 -61 24 0 36 27 22 48 -12 20 -25 24
-42 13z"/>
<path d="M3074 824 c-104 -51 -70 -197 47 -196 67 1 144 57 120 86 -11 13 -18
12 -52 -11 -41 -27 -83 -33 -102 -14 -14 14 -15 13 71 39 83 27 91 44 41 86
-35 30 -78 33 -125 10z m90 -43 c6 -9 -91 -47 -99 -39 -3 2 2 14 11 26 16 23
77 32 88 13z"/>
<path d="M2365 796 c-25 -25 -33 -68 -17 -93 4 -7 33 -23 64 -37 66 -29 78
-44 53 -63 -25 -17 -54 -8 -85 28 -28 33 -45 37 -54 13 -9 -24 -7 -72 3 -78 5
-4 42 -9 83 -12 65 -6 76 -4 101 16 21 17 27 30 27 59 0 45 -19 65 -83 87 -33
11 -47 21 -47 34 0 38 51 34 83 -7 27 -34 49 -19 45 30 l-3 41 -72 4 c-67 3
-75 1 -98 -22z"/>
<path d="M2833 770 c-25 -10 -26 -11 -17 -34 3 -9 16 -16 29 -16 17 0 24 -7
29 -31 11 -57 8 -67 -21 -71 -36 -4 -47 -48 -13 -48 48 0 161 24 171 36 16 20
2 34 -36 34 -37 0 -36 -3 -52 90 -8 41 -11 45 -38 47 -17 1 -40 -2 -52 -7z"/>
<path d="M2604 741 c-61 -37 -66 -123 -9 -167 40 -30 106 -32 153 -4 53 33 38
74 -17 45 -36 -18 -82 -20 -99 -3 -16 16 -16 70 0 86 19 19 73 14 93 -8 34
-38 60 -17 49 39 -6 27 -8 28 -73 29 -49 1 -75 -3 -97 -17z"/>
</g>
</svg>
